<svg width="20" height="20" viewBox="0 0 20 20" fill="none" xmlns="http://www.w3.org/2000/svg">
<path d="M15.8334 3.33331H4.16669C3.50365 3.33331 2.86776 3.59671 2.39892 4.06555C1.93008 4.53439 1.66669 5.17027 1.66669 5.83331V14.1666C1.66669 14.8297 1.93008 15.4656 2.39892 15.9344C2.86776 16.4033 3.50365 16.6666 4.16669 16.6666H15.8334C16.4964 16.6666 17.1323 16.4033 17.6011 15.9344C18.07 15.4656 18.3334 14.8297 18.3334 14.1666V5.83331C18.3334 5.17027 18.07 4.53439 17.6011 4.06555C17.1323 3.59671 16.4964 3.33331 15.8334 3.33331ZM15.275 4.99998L10 8.95831L4.72502 4.99998H15.275ZM15.8334 15H4.16669C3.94567 15 3.73371 14.9122 3.57743 14.7559C3.42115 14.5996 3.33335 14.3877 3.33335 14.1666V6.04165L9.50002 10.6666C9.64427 10.7748 9.81971 10.8333 10 10.8333C10.1803 10.8333 10.3558 10.7748 10.5 10.6666L16.6667 6.04165V14.1666C16.6667 14.3877 16.5789 14.5996 16.4226 14.7559C16.2663 14.9122 16.0544 15 15.8334 15Z" fill="#231F20"/>
</svg>
