<svg width="20" height="20" viewBox="0 0 20 20" fill="none" xmlns="http://www.w3.org/2000/svg">
<path d="M14.5 18.3334C11.0978 18.3289 7.83611 16.9754 5.43035 14.5697C3.02459 12.1639 1.6711 8.90228 1.66669 5.50002C1.66669 4.48336 2.07055 3.50834 2.78944 2.78945C3.50833 2.07056 4.48336 1.66669 5.50002 1.66669C5.7153 1.66505 5.93023 1.68459 6.14169 1.72502C6.34611 1.75527 6.54708 1.80552 6.74169 1.87502C6.87856 1.92305 7.00053 2.00597 7.09553 2.11558C7.19053 2.2252 7.25527 2.35771 7.28335 2.50002L8.42502 7.50002C8.45579 7.63574 8.45209 7.77701 8.41424 7.91093C8.37639 8.04485 8.30561 8.16715 8.20835 8.26669C8.10002 8.38336 8.09169 8.39169 7.06669 8.92502C7.88751 10.7257 9.32769 12.1718 11.125 13C11.6667 11.9667 11.675 11.9584 11.7917 11.85C11.8912 11.7528 12.0135 11.682 12.1474 11.6441C12.2814 11.6063 12.4226 11.6026 12.5584 11.6334L17.5584 12.775C17.6961 12.807 17.8235 12.8735 17.9284 12.9682C18.0334 13.063 18.1125 13.1829 18.1584 13.3167C18.2287 13.5145 18.2817 13.718 18.3167 13.925C18.3502 14.1345 18.3669 14.3462 18.3667 14.5584C18.3513 15.5707 17.9361 16.5358 17.2117 17.2431C16.4872 17.9503 15.5124 18.3423 14.5 18.3334Z" fill="#231F20"/>
</svg>
